<mxfile host="Electron" modified="2024-10-17T06:44:26.813Z" agent="Mozilla/5.0 (Windows NT 10.0; Win64; x64) AppleWebKit/537.36 (KHTML, like Gecko) draw.io/24.4.8 Chrome/124.0.6367.207 Electron/30.0.6 Safari/537.36" etag="8S_bOVYSACFoogieT6ca" version="24.4.8" type="device">
  <diagram name="PÃ¡gina-1" id="lqZUrQwgJUGXGH3_-4Pu">
    <mxGraphModel dx="4897" dy="2954" grid="0" gridSize="10" guides="1" tooltips="1" connect="1" arrows="1" fold="1" page="0" pageScale="1" pageWidth="827" pageHeight="1169" math="0" shadow="0">
      <root>
        <mxCell id="0" />
        <mxCell id="1" parent="0" />
        <mxCell id="uq75FCylCMwHS8_xi1bC-27" value="" style="rounded=0;whiteSpace=wrap;html=1;" vertex="1" parent="1">
          <mxGeometry x="-29" y="171" width="1424" height="425" as="geometry" />
        </mxCell>
        <mxCell id="uq75FCylCMwHS8_xi1bC-50" value="" style="rounded=0;whiteSpace=wrap;html=1;" vertex="1" parent="1">
          <mxGeometry x="-15" y="430" width="1392" height="144" as="geometry" />
        </mxCell>
        <mxCell id="uq75FCylCMwHS8_xi1bC-2" style="edgeStyle=none;curved=1;rounded=0;orthogonalLoop=1;jettySize=auto;html=1;fontSize=12;startSize=8;endSize=8;endArrow=none;endFill=0;dashed=1;dashPattern=12 12;" edge="1" parent="1" source="uq75FCylCMwHS8_xi1bC-1">
          <mxGeometry relative="1" as="geometry">
            <mxPoint x="-192" y="1081" as="targetPoint" />
          </mxGeometry>
        </mxCell>
        <mxCell id="uq75FCylCMwHS8_xi1bC-1" value="&lt;u&gt;admin:AdministradorDeReservas&lt;/u&gt;" style="rounded=0;whiteSpace=wrap;html=1;" vertex="1" parent="1">
          <mxGeometry x="-320" y="-157" width="251" height="45" as="geometry" />
        </mxCell>
        <mxCell id="uq75FCylCMwHS8_xi1bC-3" value="" style="endArrow=classic;html=1;rounded=0;fontSize=12;startSize=8;endSize=8;curved=1;" edge="1" parent="1">
          <mxGeometry width="50" height="50" relative="1" as="geometry">
            <mxPoint x="-424" y="-60" as="sourcePoint" />
            <mxPoint x="-195" y="-58" as="targetPoint" />
          </mxGeometry>
        </mxCell>
        <mxCell id="uq75FCylCMwHS8_xi1bC-4" value="informarNoPresentacion(126201712hs, tenis4)" style="text;html=1;align=center;verticalAlign=middle;whiteSpace=wrap;rounded=0;fontSize=16;" vertex="1" parent="1">
          <mxGeometry x="-545" y="-100" width="354" height="44" as="geometry" />
        </mxCell>
        <mxCell id="uq75FCylCMwHS8_xi1bC-7" value="&lt;u&gt;cancha:Cancha&lt;/u&gt;" style="rounded=0;whiteSpace=wrap;html=1;" vertex="1" parent="1">
          <mxGeometry x="-44" y="-157" width="251" height="45" as="geometry" />
        </mxCell>
        <mxCell id="uq75FCylCMwHS8_xi1bC-9" value="&lt;u&gt;reservas:Reserva&lt;/u&gt;" style="rounded=0;whiteSpace=wrap;html=1;" vertex="1" parent="1">
          <mxGeometry x="232" y="-157" width="251" height="45" as="geometry" />
        </mxCell>
        <mxCell id="uq75FCylCMwHS8_xi1bC-11" style="edgeStyle=none;curved=1;rounded=0;orthogonalLoop=1;jettySize=auto;html=1;fontSize=12;startSize=8;endSize=8;endArrow=none;endFill=0;dashed=1;dashPattern=12 12;" edge="1" parent="1">
          <mxGeometry relative="1" as="geometry">
            <mxPoint x="89" y="1082" as="targetPoint" />
            <mxPoint x="87" y="-112" as="sourcePoint" />
          </mxGeometry>
        </mxCell>
        <mxCell id="uq75FCylCMwHS8_xi1bC-12" style="edgeStyle=none;curved=1;rounded=0;orthogonalLoop=1;jettySize=auto;html=1;fontSize=12;startSize=8;endSize=8;endArrow=none;endFill=0;dashed=1;dashPattern=12 12;" edge="1" parent="1">
          <mxGeometry relative="1" as="geometry">
            <mxPoint x="363" y="1100" as="targetPoint" />
            <mxPoint x="361" y="-109" as="sourcePoint" />
          </mxGeometry>
        </mxCell>
        <mxCell id="uq75FCylCMwHS8_xi1bC-13" value="" style="endArrow=open;html=1;rounded=0;fontSize=12;startSize=8;endSize=8;curved=1;endFill=0;" edge="1" parent="1">
          <mxGeometry width="50" height="50" relative="1" as="geometry">
            <mxPoint x="-194" y="-9" as="sourcePoint" />
            <mxPoint x="86" y="-7" as="targetPoint" />
          </mxGeometry>
        </mxCell>
        <mxCell id="uq75FCylCMwHS8_xi1bC-14" value="getReserva(126201712hs)" style="text;html=1;align=center;verticalAlign=middle;whiteSpace=wrap;rounded=0;fontSize=16;" vertex="1" parent="1">
          <mxGeometry x="-136" y="-44" width="181" height="30" as="geometry" />
        </mxCell>
        <mxCell id="uq75FCylCMwHS8_xi1bC-16" value="&lt;u&gt;iterator:Iterator&lt;/u&gt;" style="rounded=0;whiteSpace=wrap;html=1;" vertex="1" parent="1">
          <mxGeometry x="539" y="-157" width="251" height="45" as="geometry" />
        </mxCell>
        <mxCell id="uq75FCylCMwHS8_xi1bC-17" style="edgeStyle=none;curved=1;rounded=0;orthogonalLoop=1;jettySize=auto;html=1;fontSize=12;startSize=8;endSize=8;endArrow=none;endFill=0;dashed=1;dashPattern=12 12;" edge="1" parent="1">
          <mxGeometry relative="1" as="geometry">
            <mxPoint x="670" y="1113" as="targetPoint" />
            <mxPoint x="668" y="-109" as="sourcePoint" />
          </mxGeometry>
        </mxCell>
        <mxCell id="uq75FCylCMwHS8_xi1bC-19" value="" style="endArrow=open;html=1;rounded=0;fontSize=12;startSize=8;endSize=8;curved=1;endFill=0;" edge="1" parent="1">
          <mxGeometry width="50" height="50" relative="1" as="geometry">
            <mxPoint x="85" y="46" as="sourcePoint" />
            <mxPoint x="365" y="48" as="targetPoint" />
          </mxGeometry>
        </mxCell>
        <mxCell id="uq75FCylCMwHS8_xi1bC-20" value="iterator()" style="text;html=1;align=center;verticalAlign=middle;whiteSpace=wrap;rounded=0;fontSize=16;" vertex="1" parent="1">
          <mxGeometry x="181" y="14" width="60" height="30" as="geometry" />
        </mxCell>
        <mxCell id="uq75FCylCMwHS8_xi1bC-21" value="" style="endArrow=open;html=1;rounded=0;fontSize=12;startSize=8;endSize=8;curved=1;dashed=1;dashPattern=8 8;endFill=0;" edge="1" parent="1">
          <mxGeometry width="50" height="50" relative="1" as="geometry">
            <mxPoint x="354" y="85" as="sourcePoint" />
            <mxPoint x="92" y="85" as="targetPoint" />
          </mxGeometry>
        </mxCell>
        <mxCell id="uq75FCylCMwHS8_xi1bC-22" value="Iterator" style="text;html=1;align=center;verticalAlign=middle;whiteSpace=wrap;rounded=0;fontSize=16;" vertex="1" parent="1">
          <mxGeometry x="178" y="54" width="60" height="30" as="geometry" />
        </mxCell>
        <mxCell id="uq75FCylCMwHS8_xi1bC-23" value="" style="endArrow=open;html=1;rounded=0;fontSize=12;startSize=8;endSize=8;curved=1;endFill=0;" edge="1" parent="1">
          <mxGeometry width="50" height="50" relative="1" as="geometry">
            <mxPoint x="85" y="126" as="sourcePoint" />
            <mxPoint x="665" y="130" as="targetPoint" />
          </mxGeometry>
        </mxCell>
        <mxCell id="uq75FCylCMwHS8_xi1bC-24" value="hasNext()" style="text;html=1;align=center;verticalAlign=middle;whiteSpace=wrap;rounded=0;fontSize=16;" vertex="1" parent="1">
          <mxGeometry x="158.5" y="90" width="99" height="38" as="geometry" />
        </mxCell>
        <mxCell id="uq75FCylCMwHS8_xi1bC-25" value="" style="endArrow=open;html=1;rounded=0;fontSize=12;startSize=8;endSize=8;curved=1;dashed=1;dashPattern=8 8;endFill=0;" edge="1" parent="1">
          <mxGeometry width="50" height="50" relative="1" as="geometry">
            <mxPoint x="665" y="161" as="sourcePoint" />
            <mxPoint x="87" y="155" as="targetPoint" />
          </mxGeometry>
        </mxCell>
        <mxCell id="uq75FCylCMwHS8_xi1bC-26" value="tieneSiguiente: boolean" style="text;html=1;align=center;verticalAlign=middle;whiteSpace=wrap;rounded=0;fontSize=16;" vertex="1" parent="1">
          <mxGeometry x="122" y="128" width="230" height="23" as="geometry" />
        </mxCell>
        <mxCell id="uq75FCylCMwHS8_xi1bC-28" value="LOOP" style="rounded=0;whiteSpace=wrap;html=1;" vertex="1" parent="1">
          <mxGeometry x="11" y="189" width="43" height="23" as="geometry" />
        </mxCell>
        <mxCell id="uq75FCylCMwHS8_xi1bC-29" value="[ tiene siguiente]" style="text;html=1;align=center;verticalAlign=middle;whiteSpace=wrap;rounded=0;fontSize=16;" vertex="1" parent="1">
          <mxGeometry x="-12" y="241" width="73" height="50" as="geometry" />
        </mxCell>
        <mxCell id="uq75FCylCMwHS8_xi1bC-30" value="" style="endArrow=open;html=1;rounded=0;fontSize=12;startSize=8;endSize=8;curved=1;endFill=0;" edge="1" parent="1">
          <mxGeometry width="50" height="50" relative="1" as="geometry">
            <mxPoint x="91" y="214" as="sourcePoint" />
            <mxPoint x="669" y="214" as="targetPoint" />
          </mxGeometry>
        </mxCell>
        <mxCell id="uq75FCylCMwHS8_xi1bC-31" value="next()" style="text;html=1;align=center;verticalAlign=middle;whiteSpace=wrap;rounded=0;fontSize=16;" vertex="1" parent="1">
          <mxGeometry x="158.5" y="182" width="60" height="30" as="geometry" />
        </mxCell>
        <mxCell id="uq75FCylCMwHS8_xi1bC-32" value="" style="endArrow=open;html=1;rounded=0;fontSize=12;startSize=8;endSize=8;curved=1;dashed=1;dashPattern=8 8;endFill=0;" edge="1" parent="1">
          <mxGeometry width="50" height="50" relative="1" as="geometry">
            <mxPoint x="666" y="249" as="sourcePoint" />
            <mxPoint x="88" y="252" as="targetPoint" />
          </mxGeometry>
        </mxCell>
        <mxCell id="uq75FCylCMwHS8_xi1bC-33" value="reserva:Reserva" style="text;html=1;align=center;verticalAlign=middle;whiteSpace=wrap;rounded=0;fontSize=16;" vertex="1" parent="1">
          <mxGeometry x="143" y="220" width="126" height="26" as="geometry" />
        </mxCell>
        <mxCell id="uq75FCylCMwHS8_xi1bC-35" value="&lt;u&gt;reserva:Reserva&lt;/u&gt;" style="rounded=0;whiteSpace=wrap;html=1;" vertex="1" parent="1">
          <mxGeometry x="846" y="-157" width="251" height="45" as="geometry" />
        </mxCell>
        <mxCell id="uq75FCylCMwHS8_xi1bC-36" style="edgeStyle=none;curved=1;rounded=0;orthogonalLoop=1;jettySize=auto;html=1;fontSize=12;startSize=8;endSize=8;endArrow=none;endFill=0;dashed=1;dashPattern=12 12;" edge="1" parent="1">
          <mxGeometry relative="1" as="geometry">
            <mxPoint x="982" y="1103" as="targetPoint" />
            <mxPoint x="980" y="-112" as="sourcePoint" />
          </mxGeometry>
        </mxCell>
        <mxCell id="uq75FCylCMwHS8_xi1bC-38" value="" style="endArrow=open;html=1;rounded=0;fontSize=12;startSize=8;endSize=8;curved=1;endFill=0;" edge="1" parent="1">
          <mxGeometry width="50" height="50" relative="1" as="geometry">
            <mxPoint x="86" y="300" as="sourcePoint" />
            <mxPoint x="978" y="295" as="targetPoint" />
          </mxGeometry>
        </mxCell>
        <mxCell id="uq75FCylCMwHS8_xi1bC-40" value="getFecha()" style="text;html=1;align=center;verticalAlign=middle;whiteSpace=wrap;rounded=0;fontSize=16;" vertex="1" parent="1">
          <mxGeometry x="172" y="266" width="90" height="29" as="geometry" />
        </mxCell>
        <mxCell id="uq75FCylCMwHS8_xi1bC-41" value="" style="endArrow=open;html=1;rounded=0;fontSize=12;startSize=8;endSize=8;curved=1;dashed=1;dashPattern=8 8;endFill=0;" edge="1" parent="1">
          <mxGeometry width="50" height="50" relative="1" as="geometry">
            <mxPoint x="977" y="341" as="sourcePoint" />
            <mxPoint x="85" y="344" as="targetPoint" />
          </mxGeometry>
        </mxCell>
        <mxCell id="uq75FCylCMwHS8_xi1bC-42" value="fecha:Date" style="text;html=1;align=center;verticalAlign=middle;whiteSpace=wrap;rounded=0;fontSize=16;" vertex="1" parent="1">
          <mxGeometry x="161" y="312" width="88" height="25" as="geometry" />
        </mxCell>
        <mxCell id="uq75FCylCMwHS8_xi1bC-44" value="&lt;u&gt;fecha:Date&lt;/u&gt;" style="rounded=0;whiteSpace=wrap;html=1;" vertex="1" parent="1">
          <mxGeometry x="1139" y="-157" width="251" height="45" as="geometry" />
        </mxCell>
        <mxCell id="uq75FCylCMwHS8_xi1bC-45" style="edgeStyle=none;curved=1;rounded=0;orthogonalLoop=1;jettySize=auto;html=1;fontSize=12;startSize=8;endSize=8;endArrow=none;endFill=0;dashed=1;dashPattern=12 12;" edge="1" parent="1">
          <mxGeometry relative="1" as="geometry">
            <mxPoint x="1276" y="1077" as="targetPoint" />
            <mxPoint x="1274" y="-110" as="sourcePoint" />
          </mxGeometry>
        </mxCell>
        <mxCell id="uq75FCylCMwHS8_xi1bC-46" value="" style="endArrow=open;html=1;rounded=0;fontSize=12;startSize=8;endSize=8;curved=1;endFill=0;" edge="1" parent="1">
          <mxGeometry width="50" height="50" relative="1" as="geometry">
            <mxPoint x="87" y="383" as="sourcePoint" />
            <mxPoint x="1275" y="376" as="targetPoint" />
          </mxGeometry>
        </mxCell>
        <mxCell id="uq75FCylCMwHS8_xi1bC-47" value="equals(126201712hs)" style="text;html=1;align=center;verticalAlign=middle;whiteSpace=wrap;rounded=0;fontSize=16;" vertex="1" parent="1">
          <mxGeometry x="161" y="350" width="60" height="30" as="geometry" />
        </mxCell>
        <mxCell id="uq75FCylCMwHS8_xi1bC-51" value="OPT" style="rounded=0;whiteSpace=wrap;html=1;" vertex="1" parent="1">
          <mxGeometry x="1.5" y="449" width="46" height="26" as="geometry" />
        </mxCell>
        <mxCell id="uq75FCylCMwHS8_xi1bC-52" value="[ fecha&lt;div&gt;&amp;nbsp;== 126201712hs]&lt;/div&gt;" style="text;html=1;align=center;verticalAlign=middle;whiteSpace=wrap;rounded=0;fontSize=16;" vertex="1" parent="1">
          <mxGeometry x="-12" y="485" width="100" height="88" as="geometry" />
        </mxCell>
        <mxCell id="uq75FCylCMwHS8_xi1bC-53" value="" style="endArrow=open;html=1;rounded=0;fontSize=12;startSize=8;endSize=8;curved=1;dashed=1;dashPattern=8 8;endFill=0;exitX=0;exitY=1;exitDx=0;exitDy=0;strokeWidth=2;" edge="1" parent="1" source="uq75FCylCMwHS8_xi1bC-50">
          <mxGeometry width="50" height="50" relative="1" as="geometry">
            <mxPoint x="6" y="583" as="sourcePoint" />
            <mxPoint x="-199" y="574" as="targetPoint" />
          </mxGeometry>
        </mxCell>
        <mxCell id="uq75FCylCMwHS8_xi1bC-54" value="reserva:Reserva" style="text;html=1;align=center;verticalAlign=middle;whiteSpace=wrap;rounded=0;fontSize=16;" vertex="1" parent="1">
          <mxGeometry x="-177" y="539" width="124" height="26" as="geometry" />
        </mxCell>
        <mxCell id="uq75FCylCMwHS8_xi1bC-56" value="" style="endArrow=open;html=1;rounded=0;fontSize=12;startSize=8;endSize=8;curved=1;dashed=1;dashPattern=8 8;endFill=0;" edge="1" parent="1">
          <mxGeometry width="50" height="50" relative="1" as="geometry">
            <mxPoint x="1275" y="409" as="sourcePoint" />
            <mxPoint x="83" y="412" as="targetPoint" />
          </mxGeometry>
        </mxCell>
        <mxCell id="uq75FCylCMwHS8_xi1bC-59" value="esIgual:boolean" style="text;html=1;align=center;verticalAlign=middle;whiteSpace=wrap;rounded=0;fontSize=16;" vertex="1" parent="1">
          <mxGeometry x="148" y="386" width="142" height="25" as="geometry" />
        </mxCell>
        <mxCell id="uq75FCylCMwHS8_xi1bC-60" value="" style="endArrow=open;html=1;rounded=0;fontSize=12;startSize=8;endSize=8;curved=1;endFill=0;" edge="1" parent="1">
          <mxGeometry width="50" height="50" relative="1" as="geometry">
            <mxPoint x="-191" y="648" as="sourcePoint" />
            <mxPoint x="362" y="650" as="targetPoint" />
          </mxGeometry>
        </mxCell>
        <mxCell id="uq75FCylCMwHS8_xi1bC-61" value="realizarPago(50)" style="text;html=1;align=center;verticalAlign=middle;whiteSpace=wrap;rounded=0;fontSize=16;" vertex="1" parent="1">
          <mxGeometry x="-136" y="613" width="60" height="30" as="geometry" />
        </mxCell>
        <mxCell id="uq75FCylCMwHS8_xi1bC-63" value="&lt;u&gt;SistemaBancario&lt;/u&gt;" style="rounded=0;whiteSpace=wrap;html=1;" vertex="1" parent="1">
          <mxGeometry x="1481" y="-157" width="251" height="45" as="geometry" />
        </mxCell>
        <mxCell id="uq75FCylCMwHS8_xi1bC-64" style="edgeStyle=none;curved=1;rounded=0;orthogonalLoop=1;jettySize=auto;html=1;fontSize=12;startSize=8;endSize=8;endArrow=none;endFill=0;dashed=1;dashPattern=12 12;" edge="1" parent="1">
          <mxGeometry relative="1" as="geometry">
            <mxPoint x="1606" y="1084" as="targetPoint" />
            <mxPoint x="1605.5" y="-112" as="sourcePoint" />
          </mxGeometry>
        </mxCell>
        <mxCell id="uq75FCylCMwHS8_xi1bC-66" value="getSistemaBancario()" style="text;html=1;align=center;verticalAlign=middle;whiteSpace=wrap;rounded=0;fontSize=16;" vertex="1" parent="1">
          <mxGeometry x="367" y="649" width="165" height="30" as="geometry" />
        </mxCell>
        <mxCell id="uq75FCylCMwHS8_xi1bC-69" value="SistemaBancario" style="text;html=1;align=center;verticalAlign=middle;whiteSpace=wrap;rounded=0;fontSize=16;" vertex="1" parent="1">
          <mxGeometry x="367" y="705" width="139" height="26" as="geometry" />
        </mxCell>
        <mxCell id="uq75FCylCMwHS8_xi1bC-70" value="&lt;u&gt;tarjeta:DatosTarjeta&lt;/u&gt;" style="rounded=0;whiteSpace=wrap;html=1;" vertex="1" parent="1">
          <mxGeometry x="1789" y="-157" width="251" height="45" as="geometry" />
        </mxCell>
        <mxCell id="uq75FCylCMwHS8_xi1bC-71" style="edgeStyle=none;curved=1;rounded=0;orthogonalLoop=1;jettySize=auto;html=1;fontSize=12;startSize=8;endSize=8;endArrow=none;endFill=0;dashed=1;dashPattern=12 12;" edge="1" parent="1">
          <mxGeometry relative="1" as="geometry">
            <mxPoint x="1916" y="1069" as="targetPoint" />
            <mxPoint x="1913.5" y="-112" as="sourcePoint" />
          </mxGeometry>
        </mxCell>
        <mxCell id="uq75FCylCMwHS8_xi1bC-72" value="" style="endArrow=open;html=1;rounded=0;fontSize=12;startSize=8;endSize=8;curved=1;endFill=0;" edge="1" parent="1">
          <mxGeometry width="50" height="50" relative="1" as="geometry">
            <mxPoint x="368" y="781" as="sourcePoint" />
            <mxPoint x="1907" y="781" as="targetPoint" />
          </mxGeometry>
        </mxCell>
        <mxCell id="uq75FCylCMwHS8_xi1bC-74" value="getNro()" style="text;html=1;align=center;verticalAlign=middle;whiteSpace=wrap;rounded=0;fontSize=16;" vertex="1" parent="1">
          <mxGeometry x="459" y="748" width="60" height="30" as="geometry" />
        </mxCell>
        <mxCell id="uq75FCylCMwHS8_xi1bC-75" value="" style="endArrow=open;html=1;rounded=0;fontSize=12;startSize=8;endSize=8;curved=1;dashed=1;dashPattern=8 8;endFill=0;" edge="1" parent="1">
          <mxGeometry width="50" height="50" relative="1" as="geometry">
            <mxPoint x="1900" y="817" as="sourcePoint" />
            <mxPoint x="364" y="820" as="targetPoint" />
          </mxGeometry>
        </mxCell>
        <mxCell id="uq75FCylCMwHS8_xi1bC-76" value="nro:int" style="text;html=1;align=center;verticalAlign=middle;whiteSpace=wrap;rounded=0;fontSize=16;" vertex="1" parent="1">
          <mxGeometry x="459" y="789" width="60" height="30" as="geometry" />
        </mxCell>
        <mxCell id="uq75FCylCMwHS8_xi1bC-77" value="" style="endArrow=open;html=1;rounded=0;fontSize=12;startSize=8;endSize=8;curved=1;endFill=0;" edge="1" parent="1">
          <mxGeometry width="50" height="50" relative="1" as="geometry">
            <mxPoint x="367" y="865" as="sourcePoint" />
            <mxPoint x="1906" y="865" as="targetPoint" />
          </mxGeometry>
        </mxCell>
        <mxCell id="uq75FCylCMwHS8_xi1bC-78" value="getVencimiento()" style="text;html=1;align=center;verticalAlign=middle;whiteSpace=wrap;rounded=0;fontSize=16;" vertex="1" parent="1">
          <mxGeometry x="434" y="835" width="146" height="23" as="geometry" />
        </mxCell>
        <mxCell id="uq75FCylCMwHS8_xi1bC-79" value="" style="endArrow=open;html=1;rounded=0;fontSize=12;startSize=8;endSize=8;curved=1;dashed=1;dashPattern=8 8;endFill=0;" edge="1" parent="1">
          <mxGeometry width="50" height="50" relative="1" as="geometry">
            <mxPoint x="1897" y="911" as="sourcePoint" />
            <mxPoint x="361" y="914" as="targetPoint" />
          </mxGeometry>
        </mxCell>
        <mxCell id="uq75FCylCMwHS8_xi1bC-80" value="vencimiento:Date" style="text;html=1;align=center;verticalAlign=middle;whiteSpace=wrap;rounded=0;fontSize=16;" vertex="1" parent="1">
          <mxGeometry x="455" y="874" width="142" height="34" as="geometry" />
        </mxCell>
        <mxCell id="uq75FCylCMwHS8_xi1bC-81" value="" style="endArrow=open;html=1;rounded=0;fontSize=12;startSize=8;endSize=8;curved=1;endFill=0;" edge="1" parent="1">
          <mxGeometry width="50" height="50" relative="1" as="geometry">
            <mxPoint x="368" y="959" as="sourcePoint" />
            <mxPoint x="1907" y="959" as="targetPoint" />
          </mxGeometry>
        </mxCell>
        <mxCell id="uq75FCylCMwHS8_xi1bC-83" value="getCodSeguridad()" style="text;html=1;align=center;verticalAlign=middle;whiteSpace=wrap;rounded=0;fontSize=16;" vertex="1" parent="1">
          <mxGeometry x="434" y="924" width="166" height="35" as="geometry" />
        </mxCell>
        <mxCell id="uq75FCylCMwHS8_xi1bC-84" value="" style="endArrow=open;html=1;rounded=0;fontSize=12;startSize=8;endSize=8;curved=1;dashed=1;dashPattern=8 8;endFill=0;" edge="1" parent="1">
          <mxGeometry width="50" height="50" relative="1" as="geometry">
            <mxPoint x="1898" y="996" as="sourcePoint" />
            <mxPoint x="362" y="999" as="targetPoint" />
          </mxGeometry>
        </mxCell>
        <mxCell id="uq75FCylCMwHS8_xi1bC-85" value="codSeguridad:int" style="text;html=1;align=center;verticalAlign=middle;whiteSpace=wrap;rounded=0;fontSize=16;" vertex="1" parent="1">
          <mxGeometry x="462" y="969" width="125" height="22" as="geometry" />
        </mxCell>
        <mxCell id="uq75FCylCMwHS8_xi1bC-86" value="" style="endArrow=open;html=1;rounded=0;fontSize=12;startSize=8;endSize=8;curved=1;endFill=0;" edge="1" parent="1">
          <mxGeometry width="50" height="50" relative="1" as="geometry">
            <mxPoint x="365" y="1037" as="sourcePoint" />
            <mxPoint x="1604" y="1037" as="targetPoint" />
          </mxGeometry>
        </mxCell>
        <mxCell id="uq75FCylCMwHS8_xi1bC-87" value="&lt;font style=&quot;font-size: 13px;&quot;&gt;hacerPago(nro,vencimiento,codSeguridad,monto)&lt;/font&gt;" style="text;html=1;align=center;verticalAlign=middle;whiteSpace=wrap;rounded=0;fontSize=16;" vertex="1" parent="1">
          <mxGeometry x="362" y="1009" width="315" height="28" as="geometry" />
        </mxCell>
        <mxCell id="uq75FCylCMwHS8_xi1bC-89" value="" style="endArrow=open;html=1;rounded=0;fontSize=12;startSize=8;endSize=8;curved=1;dashed=1;dashPattern=8 8;endFill=0;" edge="1" parent="1">
          <mxGeometry width="50" height="50" relative="1" as="geometry">
            <mxPoint x="1596" y="1070" as="sourcePoint" />
            <mxPoint x="362" y="1073" as="targetPoint" />
          </mxGeometry>
        </mxCell>
        <mxCell id="uq75FCylCMwHS8_xi1bC-90" value="boolean" style="text;html=1;align=center;verticalAlign=middle;whiteSpace=wrap;rounded=0;fontSize=16;" vertex="1" parent="1">
          <mxGeometry x="446" y="1042" width="60" height="30" as="geometry" />
        </mxCell>
        <mxCell id="uq75FCylCMwHS8_xi1bC-92" value="" style="endArrow=open;html=1;rounded=0;fontSize=12;startSize=8;endSize=8;curved=0;endFill=0;" edge="1" parent="1">
          <mxGeometry width="50" height="50" relative="1" as="geometry">
            <mxPoint x="370" y="676" as="sourcePoint" />
            <mxPoint x="363" y="704" as="targetPoint" />
            <Array as="points">
              <mxPoint x="406" y="676" />
              <mxPoint x="406" y="704" />
            </Array>
          </mxGeometry>
        </mxCell>
        <mxCell id="uq75FCylCMwHS8_xi1bC-94" value="" style="endArrow=open;html=1;rounded=0;fontSize=12;startSize=8;endSize=8;curved=0;endFill=0;dashed=1;dashPattern=8 8;" edge="1" parent="1">
          <mxGeometry width="50" height="50" relative="1" as="geometry">
            <mxPoint x="372" y="731" as="sourcePoint" />
            <mxPoint x="365" y="759" as="targetPoint" />
            <Array as="points">
              <mxPoint x="408" y="731" />
              <mxPoint x="408" y="759" />
            </Array>
          </mxGeometry>
        </mxCell>
      </root>
    </mxGraphModel>
  </diagram>
</mxfile>
